<?xml version="1.0" encoding="UTF-8" standalone="no"?>
<svg
   width="23.246"
   height="19.925"
   viewBox="0 0 23.246 19.925"
   version="1.1"
   id="svg3"
   sodipodi:docname="icon_abs.svg"
   inkscape:version="1.4.2 (f4327f4, 2025-05-13)"
   xmlns:inkscape="http://www.inkscape.org/namespaces/inkscape"
   xmlns:sodipodi="http://sodipodi.sourceforge.net/DTD/sodipodi-0.dtd"
   xmlns="http://www.w3.org/2000/svg"
   xmlns:svg="http://www.w3.org/2000/svg">
  <sodipodi:namedview
     id="namedview3"
     pagecolor="#ffffff"
     bordercolor="#000000"
     borderopacity="0.25"
     inkscape:showpageshadow="2"
     inkscape:pageopacity="0.0"
     inkscape:pagecheckerboard="0"
     inkscape:deskcolor="#d1d1d1"
     inkscape:zoom="41.414988"
     inkscape:cx="8.559703"
     inkscape:cy="9.501391"
     inkscape:window-width="2560"
     inkscape:window-height="1369"
     inkscape:window-x="-8"
     inkscape:window-y="-8"
     inkscape:window-maximized="1"
     inkscape:current-layer="svg3" />
  <defs
     id="defs1">
    <path
       id="glyph0-1"
       d="M 1.578125 -7.125 C 1.578125 -7.296875 1.578125 -7.484375 1.390625 -7.484375 C 1.1875 -7.484375 1.1875 -7.296875 1.1875 -7.125 L 1.1875 2.140625 C 1.1875 2.3125 1.1875 2.5 1.390625 2.5 C 1.578125 2.5 1.578125 2.3125 1.578125 2.140625 Z M 1.578125 -7.125" />
    <path
       id="glyph1-1"
       d="M 7.1875 -5.5 C 7.1875 -5.8125 7.15625 -5.84375 6.84375 -5.84375 L 0.90625 -5.84375 C 0.59375 -5.84375 0.5625 -5.8125 0.5625 -5.5 L 0.5625 0.5 C 0.5625 0.8125 0.59375 0.84375 0.921875 0.84375 L 6.828125 0.84375 C 7.15625 0.84375 7.1875 0.8125 7.1875 0.5 Z M 0.953125 -5.453125 L 6.78125 -5.453125 L 6.78125 0.59375 L 0.953125 0.59375 Z M 0.953125 -5.453125" />
  </defs>
  <g
     style="fill:#000000;fill-opacity:1"
     id="g1"
     transform="matrix(1.536,0,0,1,-3.306316,0)">
    <use
       href="#glyph0-1"
       x="4.9809999"
       y="12.453"
       id="use1" />
  </g>
  <g
     style="fill:#000000;fill-opacity:1"
     id="g3"
     transform="matrix(1.536,0,0,1,-9.1521929,0)">
    <use
       href="#glyph0-1"
       x="15.497521"
       y="12.453"
       id="use3" />
  </g>
  <rect
     style="fill:#000000;stroke-width:0.46498"
     id="rect1"
     width="0.60000002"
     height="6.5259342"
     x="8.2220688"
     y="6.4322319" />
  <rect
     style="fill:#000000;stroke-width:0.999385"
     id="rect2"
     width="6.8277931"
     height="0.60000002"
     x="8.2218943"
     y="6.4318123" />
  <rect
     style="fill:#000000;stroke-width:1.33672"
     id="rect3"
     width="0.60000002"
     height="6.4413013"
     x="14.449873"
     y="6.4318123" />
  <rect
     style="fill:#000000;stroke-width:1.55877"
     id="rect4"
     width="6.8279996"
     height="0.60000002"
     x="8.2218943"
     y="12.653145" />
</svg>
