<?xml version="1.0" encoding="UTF-8" standalone="no"?>
<svg
   width="21.207pt"
   height="21.46pt"
   viewBox="0 0 21.207 21.46"
   version="1.1"
   id="svg5"
   sodipodi:docname="icon_power2.svg"
   inkscape:version="1.4.2 (f4327f4, 2025-05-13)"
   xmlns:inkscape="http://www.inkscape.org/namespaces/inkscape"
   xmlns:sodipodi="http://sodipodi.sourceforge.net/DTD/sodipodi-0.dtd"
   xmlns="http://www.w3.org/2000/svg"
   xmlns:svg="http://www.w3.org/2000/svg">
  <sodipodi:namedview
     id="namedview5"
     pagecolor="#ffffff"
     bordercolor="#000000"
     borderopacity="0.25"
     inkscape:showpageshadow="2"
     inkscape:pageopacity="0.0"
     inkscape:pagecheckerboard="0"
     inkscape:deskcolor="#d1d1d1"
     inkscape:document-units="pt"
     inkscape:zoom="40.785183"
     inkscape:cx="14.135035"
     inkscape:cy="14.306666"
     inkscape:window-width="2560"
     inkscape:window-height="1369"
     inkscape:window-x="-8"
     inkscape:window-y="-8"
     inkscape:window-maximized="1"
     inkscape:current-layer="svg5" />
  <defs
     id="defs1">
    <path
       id="glyph0-1"
       d="M3.516-1.266h-.235c-.015.157-.094.563-.187.625-.047.047-.578.047-.688.047H1.125c.734-.64.984-.843 1.39-1.171.516-.407 1-.844 1-1.5 0-.844-.734-1.36-1.625-1.36-.86 0-1.453.61-1.453 1.25 0 .344.297.39.375.39.156 0 .36-.125.36-.375 0-.125-.047-.375-.407-.375.219-.484.687-.64 1.015-.64.703 0 1.063.547 1.063 1.11 0 .609-.438 1.078-.656 1.328L.515-.266c-.078.063-.078.078-.078.266h2.875z" />
  </defs>
  <g
     transform="translate(1, -1)"
     id="g5">
    <g
       fill="none"
       stroke="#000000"
       stroke-width=".398"
       stroke-miterlimit="10"
       id="g4">
      <path
         style="baseline-shift:baseline;display:inline;overflow:visible;vector-effect:none;fill:#000000;stroke:none;enable-background:accumulate;stop-color:#000000;stop-opacity:1;opacity:1"
         d="M -0.00195313,-0.19726562 V 0.19921875 H 6.7753906 v -0.39648437 z"
         id="path1"
         transform="matrix(1,0,0,-1,4.981,9.903)" />
      <path
         style="baseline-shift:baseline;display:inline;overflow:visible;vector-effect:none;fill:#000000;stroke:none;enable-background:accumulate;stop-color:#000000;stop-opacity:1;opacity:1"
         d="M -0.19921875,0.00195313 V 5.9804687 H 0.19726562 V 0.00195313 Z"
         id="path2"
         transform="matrix(1,0,0,-1,5.181,16.08)" />
      <path
         style="baseline-shift:baseline;display:inline;overflow:visible;vector-effect:none;fill:#000000;stroke:none;enable-background:accumulate;stop-color:#000000;stop-opacity:1;opacity:1"
         d="M -0.19726562,0.00195313 V 5.9804687 h 0.3984375 V 0.00195313 Z"
         id="path3"
         transform="matrix(1,0,0,-1,11.557,16.08)" />
      <path
         style="baseline-shift:baseline;display:inline;overflow:visible;vector-effect:none;fill:#000000;stroke:none;enable-background:accumulate;stop-color:#000000;stop-opacity:1;opacity:1"
         d="m -0.00195313,-0.19726562 v 0.3984375 H 6.7753906 v -0.3984375 z"
         id="path4"
         transform="matrix(1,0,0,-1,4.981,16.279)" />
    </g>
    <path
       id="use4"
       d="m 15.272,8.2099998 h -0.235 c -0.015,0.157 -0.094,0.563 -0.187,0.625 -0.047,0.047 -0.578,0.047 -0.688,0.047 h -1.281 c 0.734,-0.64 0.984,-0.843 1.39,-1.171 0.516,-0.407 1,-0.844 1,-1.5 0,-0.844 -0.734,-1.36 -1.625,-1.36 -0.86,0 -1.453,0.61 -1.453,1.25 0,0.344 0.297,0.39 0.375,0.39 0.156,0 0.36,-0.125 0.36,-0.375 0,-0.125 -0.047,-0.375 -0.407,-0.375 0.219,-0.484 0.687,-0.64 1.015,-0.64 0.703,0 1.063,0.547 1.063,1.11 0,0.609 -0.438,1.078 -0.656,1.328 l -1.672,1.671 c -0.078,0.063 -0.078,0.078 -0.078,0.266 h 2.875 z"
       style="fill:#000000" />
  </g>
</svg>
