<?xml version="1.0" encoding="UTF-8"?>
<svg xmlns="http://www.w3.org/2000/svg" width="21.207pt" height="21.46pt" viewBox="0 0 21.207 21.46" version="1.1">
  <defs>
    <path id="glyph0-1" d="M3.516-1.266h-.235c-.015.157-.094.563-.187.625-.047.047-.578.047-.688.047H1.125c.734-.64.984-.843 1.39-1.171.516-.407 1-.844 1-1.5 0-.844-.734-1.36-1.625-1.36-.86 0-1.453.61-1.453 1.25 0 .344.297.39.375.39.156 0 .36-.125.36-.375 0-.125-.047-.375-.407-.375.219-.484.687-.64 1.015-.64.703 0 1.063.547 1.063 1.11 0 .609-.438 1.078-.656 1.328L.515-.266c-.078.063-.078.078-.078.266h2.875z"/>
  </defs>
  
  <g transform="translate(1, -1)">
    <g fill="none" stroke="#000000" stroke-width=".398" stroke-miterlimit="10">
      <path d="M-.001.001h6.777" transform="matrix(1,0,0,-1,4.981,9.903)"/>
      <path d="M-.001.002v5.978" transform="matrix(1,0,0,-1,5.181,16.08)"/>
      <path d="M.002.002v5.978" transform="matrix(1,0,0,-1,11.557,16.08)"/>
      <path d="M-.001.002h6.777" transform="matrix(1,0,0,-1,4.981,16.279)"/>
    </g>
    <use href="#glyph0-1" x="11.756" y="9.476" fill="#000000"/>
  </g>
</svg>
