<?xml version="1.0" encoding="UTF-8" standalone="no"?>
<svg
   width="12.73pt"
   height="12.951pt"
   viewBox="0 0 12.73 12.951"
   version="1.1"
   id="svg1"
   sodipodi:docname="icon_comma.svg"
   inkscape:version="1.4.2 (f4327f4, 2025-05-13)"
   xmlns:inkscape="http://www.inkscape.org/namespaces/inkscape"
   xmlns:sodipodi="http://sodipodi.sourceforge.net/DTD/sodipodi-0.dtd"
   xmlns="http://www.w3.org/2000/svg"
   xmlns:svg="http://www.w3.org/2000/svg">
  <defs
     id="defs1" />
  <sodipodi:namedview
     id="namedview1"
     pagecolor="#ffffff"
     bordercolor="#000000"
     borderopacity="0.25"
     inkscape:showpageshadow="2"
     inkscape:pageopacity="0.0"
     inkscape:pagecheckerboard="0"
     inkscape:deskcolor="#d1d1d1"
     inkscape:document-units="pt"
     inkscape:zoom="47.787445"
     inkscape:cx="9.0923463"
     inkscape:cy="8.8412343"
     inkscape:window-width="2560"
     inkscape:window-height="1369"
     inkscape:window-x="-8"
     inkscape:window-y="-8"
     inkscape:window-maximized="1"
     inkscape:current-layer="svg1" />
  <path
     fill="#000000"
     stroke="none"
     d="M 7.1458086,8.0004975 C 7.3137962,7.1988519 7.1084,6.6576865 6.63123,6.557694 6.2304071,6.4737001 5.9182833,6.7270928 5.8462887,7.0706553 5.7782937,7.3951309 5.958427,7.7716027 6.3592501,7.8555966 c 0.1336076,0.027999 0.3173879,0.00674 0.4519072,-0.064701 0.046173,-0.030174 0.06526,-0.026174 0.06526,-0.026174 0.019087,0.004 0.019087,0.004 -0.01691,0.1757807 -0.1919861,0.9161658 -0.7638845,1.5534707 -1.2487012,1.8703 -0.1616055,0.1056094 -0.1656052,0.1246964 -0.1736046,0.1628699 -0.019998,0.095434 0.029263,0.1456068 0.086522,0.1576058 0.1336075,0.028 1.3221067,-0.6992706 1.6220851,-2.1307805 z m 0,0"
     id="path1"
     style="stroke-width:1.24808" />
</svg>
