<?xml version="1.0" encoding="UTF-8" standalone="no"?>
<svg
   width="16.604pt"
   height="21.032pt"
   viewBox="0 0 16.604 21.032"
   version="1.1"
   id="svg1"
   sodipodi:docname="icon_indef_integral.svg"
   inkscape:version="1.4.2 (f4327f4, 2025-05-13)"
   xmlns:inkscape="http://www.inkscape.org/namespaces/inkscape"
   xmlns:sodipodi="http://sodipodi.sourceforge.net/DTD/sodipodi-0.dtd"
   xmlns="http://www.w3.org/2000/svg"
   xmlns:svg="http://www.w3.org/2000/svg">
  <sodipodi:namedview
     id="namedview1"
     pagecolor="#ffffff"
     bordercolor="#000000"
     borderopacity="0.25"
     inkscape:showpageshadow="2"
     inkscape:pageopacity="0.0"
     inkscape:pagecheckerboard="0"
     inkscape:deskcolor="#d1d1d1"
     inkscape:document-units="pt"
     inkscape:zoom="41.615159"
     inkscape:cx="14.30969"
     inkscape:cy="17.073106"
     inkscape:window-width="2560"
     inkscape:window-height="1369"
     inkscape:window-x="-8"
     inkscape:window-y="-8"
     inkscape:window-maximized="1"
     inkscape:current-layer="svg1" />
  <defs
     id="defs1">
    <path
       id="glyph0-1"
       d="M2.719 8.766C2.578 10.406 2.219 10.86 1.656 10.86c-.125 0-.437-.032-.64-.22.296-.03.375-.265.375-.406 0-.28-.219-.422-.407-.422-.203 0-.422.141-.422.438 0 .469.5.828 1.094.828.953 0 1.422-.875 1.64-1.766.126-.515.485-3.421.579-4.53l.187-2.485c.141-1.828.469-2.078.922-2.078.094 0 .407.015.625.203-.28.047-.359.28-.359.422 0 .28.219.406.406.406.203 0 .422-.125.422-.422 0-.485-.5-.828-1.11-.828-.936 0-1.327.969-1.5 1.719-.125.547-.484 3.36-.562 4.578z" />
  </defs>
  <use
     href="#glyph0-1"
     x="4.9809999"
     y="4.9809999"
     fill="#000000"
     id="use1"
     transform="matrix(1.3997186,0,0,1.1252677,-3.5312667,-1.50705)" />
</svg>
