<?xml version="1.0" encoding="UTF-8" standalone="no"?>
<svg
   width="21.207pt"
   height="21.46pt"
   viewBox="0 0 21.207 21.46"
   version="1.1"
   id="svg5"
   sodipodi:docname="icon_power2.svg"
   inkscape:version="1.4.2 (f4327f4, 2025-05-13)"
   xmlns:inkscape="http://www.inkscape.org/namespaces/inkscape"
   xmlns:sodipodi="http://sodipodi.sourceforge.net/DTD/sodipodi-0.dtd"
   xmlns="http://www.w3.org/2000/svg"
   xmlns:svg="http://www.w3.org/2000/svg">
  <sodipodi:namedview
     id="namedview5"
     pagecolor="#ffffff"
     bordercolor="#000000"
     borderopacity="0.25"
     inkscape:showpageshadow="2"
     inkscape:pageopacity="0.0"
     inkscape:pagecheckerboard="0"
     inkscape:deskcolor="#d1d1d1"
     inkscape:document-units="pt"
     inkscape:zoom="57.678959"
     inkscape:cx="10.723148"
     inkscape:cy="13.51446"
     inkscape:window-width="2560"
     inkscape:window-height="1369"
     inkscape:window-x="-8"
     inkscape:window-y="-8"
     inkscape:window-maximized="1"
     inkscape:current-layer="svg5" />
  <defs
     id="defs1">
    <path
       id="glyph0-1"
       d="M3.516-1.266h-.235c-.015.157-.094.563-.187.625-.047.047-.578.047-.688.047H1.125c.734-.64.984-.843 1.39-1.171.516-.407 1-.844 1-1.5 0-.844-.734-1.36-1.625-1.36-.86 0-1.453.61-1.453 1.25 0 .344.297.39.375.39.156 0 .36-.125.36-.375 0-.125-.047-.375-.407-.375.219-.484.687-.64 1.015-.64.703 0 1.063.547 1.063 1.11 0 .609-.438 1.078-.656 1.328L.515-.266c-.078.063-.078.078-.078.266h2.875z" />
  </defs>
  <path
     style="baseline-shift:baseline;display:inline;overflow:visible;vector-effect:none;fill:#000000;stroke:none;stroke-width:0.510502;stroke-miterlimit:10;enable-background:accumulate;stop-color:#000000"
     d="m 5.0412064,9.4546749 v -0.625609 h 7.0666106 v 0.625609 z"
     id="path1" />
  <path
     style="baseline-shift:baseline;display:inline;overflow:visible;vector-effect:none;fill:#000000;stroke:none;stroke-width:0.502509;stroke-miterlimit:10;enable-background:accumulate;stop-color:#000000"
     d="m 5.0440574,15.495 v -6.04 h 0.6256089 v 6.04 z"
     id="path2" />
  <path
     style="baseline-shift:baseline;display:inline;overflow:visible;vector-effect:none;fill:#000000;stroke:none;stroke-width:0.501275;stroke-miterlimit:10;enable-background:accumulate;stop-color:#000000"
     d="m 11.484006,15.495 v -6.04 h 0.625609 v 6.04 z"
     id="path3" />
  <path
     style="baseline-shift:baseline;display:inline;overflow:visible;vector-effect:none;fill:#000000;stroke:none;stroke-width:0.509236;stroke-miterlimit:10;enable-background:accumulate;stop-color:#000000"
     d="m 5.0412064,16.100775 v -0.625609 h 7.0662526 v 0.625609 z"
     id="path4" />
  <path
     id="use4"
     d="m 16.272,7.2331797 h -0.24503 c -0.01564,0.163701 -0.09801,0.5870297 -0.194982,0.651676 -0.04901,0.049006 -0.60267,0.049006 -0.717365,0.049006 h -1.335675 c 0.765328,-0.6673162 1.025999,-0.8789805 1.449328,-1.2209801 0.538023,-0.4243714 1.042681,-0.8800232 1.042681,-1.5640223 0,-0.8800232 -0.765328,-1.4180469 -1.694357,-1.4180469 -0.896707,0 -1.515017,0.6360357 -1.515017,1.3033519 0,0.3586825 0.309677,0.4066458 0.391006,0.4066458 0.162658,0 0.375365,-0.1303352 0.375365,-0.3910055 0,-0.1303352 -0.04901,-0.3910056 -0.424371,-0.3910056 0.228347,-0.5046579 0.716322,-0.6673162 1.058322,-0.6673162 0.733005,0 1.10837,0.5703468 1.10837,1.1573765 0,0.6349931 -0.456694,1.1240107 -0.683999,1.3846811 l -1.743364,1.7423208 c -0.08133,0.065689 -0.08133,0.081329 -0.08133,0.2773533 h 2.99771 z"
     style="fill:#000000;stroke-width:1.04268" />
</svg>
