<?xml version="1.0" encoding="UTF-8"?>
<svg xmlns="http://www.w3.org/2000/svg" xmlns:xlink="http://www.w3.org/1999/xlink" width="26.777pt" height="27.276pt" viewBox="0 0 26.777 27.276" version="1.1">
<g id="surface1">
<path style="fill:none;stroke-width:0.398;stroke-linecap:butt;stroke-linejoin:miter;stroke:rgb(0%,0%,0%);stroke-opacity:1;stroke-miterlimit:10;" d="M -0.00053125 0.0003125 L 9.542437 0.0003125 " transform="matrix(1,0,0,-1,4.981,5.18)"/>
<path style="fill:none;stroke-width:0.398;stroke-linecap:butt;stroke-linejoin:miter;stroke:rgb(0%,0%,0%);stroke-opacity:1;stroke-miterlimit:10;" d="M -0.0013125 -0.00071875 L -0.0013125 12.632094 " transform="matrix(1,0,0,-1,5.181,18.011)"/>
<path style="fill:none;stroke-width:0.398;stroke-linecap:butt;stroke-linejoin:miter;stroke:rgb(0%,0%,0%);stroke-opacity:1;stroke-miterlimit:10;" d="M 0.00021875 -0.00071875 L 0.00021875 12.632094 " transform="matrix(1,0,0,-1,14.324,18.011)"/>
<path style="fill:none;stroke-width:0.398;stroke-linecap:butt;stroke-linejoin:miter;stroke:rgb(0%,0%,0%);stroke-opacity:1;stroke-miterlimit:10;" d="M -0.00053125 -0.0009375 L 9.542437 -0.0009375 " transform="matrix(1,0,0,-1,4.981,18.21)"/>
<path style="fill:none;stroke-width:0.398;stroke-linecap:butt;stroke-linejoin:miter;stroke:rgb(0%,0%,0%);stroke-opacity:1;stroke-miterlimit:10;" d="M 0.0004375 0.00025 L 6.773875 0.00025 " transform="matrix(1,0,0,-1,14.523,15.719)"/>
<path style="fill:none;stroke-width:0.398;stroke-linecap:butt;stroke-linejoin:miter;stroke:rgb(0%,0%,0%);stroke-opacity:1;stroke-miterlimit:10;" d="M -0.00034375 0.00146875 L -0.00034375 5.978031 " transform="matrix(1,0,0,-1,14.723,21.896)"/>
<path style="fill:none;stroke-width:0.398;stroke-linecap:butt;stroke-linejoin:miter;stroke:rgb(0%,0%,0%);stroke-opacity:1;stroke-miterlimit:10;" d="M -0.00134375 0.00146875 L -0.00134375 5.978031 " transform="matrix(1,0,0,-1,21.099,21.896)"/>
<path style="fill:none;stroke-width:0.398;stroke-linecap:butt;stroke-linejoin:miter;stroke:rgb(0%,0%,0%);stroke-opacity:1;stroke-miterlimit:10;" d="M 0.0004375 0.00125 L 6.773875 0.00125 " transform="matrix(1,0,0,-1,14.523,22.095)"/>
</g>
</svg>
