<?xml version="1.0" encoding="UTF-8" standalone="no"?>
<svg
   width="21.874pt"
   height="17.81pt"
   viewBox="0 0 21.874 17.81"
   version="1.1"
   id="svg5"
   sodipodi:docname="icon_e_power.svg"
   inkscape:version="1.4.2 (f4327f4, 2025-05-13)"
   xmlns:inkscape="http://www.inkscape.org/namespaces/inkscape"
   xmlns:sodipodi="http://sodipodi.sourceforge.net/DTD/sodipodi-0.dtd"
   xmlns="http://www.w3.org/2000/svg"
   xmlns:svg="http://www.w3.org/2000/svg">
  <defs
     id="defs5" />
  <sodipodi:namedview
     id="namedview5"
     pagecolor="#ffffff"
     bordercolor="#000000"
     borderopacity="0.25"
     inkscape:showpageshadow="2"
     inkscape:pageopacity="0.0"
     inkscape:pagecheckerboard="0"
     inkscape:deskcolor="#d1d1d1"
     inkscape:document-units="pt"
     inkscape:zoom="98.28748"
     inkscape:cx="22.123876"
     inkscape:cy="8.3988317"
     inkscape:window-width="2560"
     inkscape:window-height="1369"
     inkscape:window-x="-8"
     inkscape:window-y="-8"
     inkscape:window-maximized="1"
     inkscape:current-layer="svg5" />
  <g
     transform="matrix(1.9463095,0,0,1.9463095,3.4228633,14.587382)"
     id="g1">
    <path
       fill="#000000"
       fill-opacity="1"
       stroke="none"
       d="m 1.859375,-2.296875 c 0.296875,0 1.03125,-0.03125 1.53125,-0.234375 0.703125,-0.296875 0.75,-0.890625 0.75,-1.03125 0,-0.4375 -0.375,-0.84375 -1.0625,-0.84375 -1.109375,0 -2.625,0.96875 -2.625,2.71875 0,1.015625 0.59375,1.796875 1.578125,1.796875 1.421875,0 2.25,-1.0625 2.25,-1.171875 0,-0.0625 -0.046875,-0.140625 -0.109375,-0.140625 -0.0625,0 -0.078125,0.03125 -0.140625,0.109375 -0.78125,0.984375 -1.875,0.984375 -1.984375,0.984375 -0.78125,0 -0.875,-0.84375 -0.875,-1.15625 0,-0.125 0.015625,-0.421875 0.15625,-1.03125 z m -0.46875,-0.21875 C 1.78125,-4.03125 2.8125,-4.1875 3.078125,-4.1875 c 0.453125,0 0.734375,0.296875 0.734375,0.625 0,1.046875 -1.59375,1.046875 -2.015625,1.046875 z m 0,0"
       id="path1" />
  </g>
  <path
     style="baseline-shift:baseline;display:inline;overflow:visible;opacity:1;vector-effect:none;stroke-width:1.1959;stroke-miterlimit:10;enable-background:accumulate;stop-color:#000000;stop-opacity:1"
     d="m 12.673828,2.4921875 v 0.5 h 5.935547 v -0.5 z"
     id="path2" />
  <path
     style="baseline-shift:baseline;display:inline;overflow:visible;opacity:1;vector-effect:none;stroke-width:1.19925;stroke-miterlimit:10;enable-background:accumulate;stop-color:#000000;stop-opacity:1"
     d="m 12.673828,2.8417969 v 5.2402344 h 0.5 V 2.8417969 Z"
     id="path3" />
  <path
     style="baseline-shift:baseline;display:inline;overflow:visible;opacity:1;vector-effect:none;stroke-width:1.19587;stroke-miterlimit:10;enable-background:accumulate;stop-color:#000000;stop-opacity:1"
     d="m 18.11,2.8417969 v 5.24 h 0.5 v -5.24 z"
     id="path4" />
  <path
     style="baseline-shift:baseline;display:inline;overflow:visible;opacity:1;vector-effect:none;stroke-width:1.1959;stroke-miterlimit:10;enable-background:accumulate;stop-color:#000000;stop-opacity:1"
     d="m 12.673828,8.0820313 v 0.5 h 5.935547 v -0.5 z"
     id="path5" />
</svg>
