<?xml version="1.0" encoding="UTF-8" standalone="no"?>
<svg
   width="33.475pt"
   height="28.294pt"
   viewBox="0 0 33.475 28.294"
   version="1.1"
   id="svg10"
   sodipodi:docname="icon_sqrtx.svg"
   inkscape:version="1.4.2 (f4327f4, 2025-05-13)"
   xmlns:inkscape="http://www.inkscape.org/namespaces/inkscape"
   xmlns:sodipodi="http://sodipodi.sourceforge.net/DTD/sodipodi-0.dtd"
   xmlns="http://www.w3.org/2000/svg"
   xmlns:svg="http://www.w3.org/2000/svg">
  <sodipodi:namedview
     id="namedview10"
     pagecolor="#ffffff"
     bordercolor="#000000"
     borderopacity="0.25"
     inkscape:showpageshadow="2"
     inkscape:pageopacity="0.0"
     inkscape:pagecheckerboard="0"
     inkscape:deskcolor="#d1d1d1"
     inkscape:document-units="pt"
     inkscape:zoom="30.93412"
     inkscape:cx="22.321631"
     inkscape:cy="18.862667"
     inkscape:window-width="2560"
     inkscape:window-height="1369"
     inkscape:window-x="-8"
     inkscape:window-y="-8"
     inkscape:window-maximized="1"
     inkscape:current-layer="svg10" />
  <defs
     id="defs1">
    <path
       id="glyph0-1"
       d="M 4.625 16.046875 L 2.484375 8.578125 L 1.09375 10.203125 L 1.25 10.34375 L 1.9375 9.546875 L 4.234375 17.546875 C 4.5625 17.546875 4.5625 17.546875 4.640625 17.3125 L 10.125 0 C 10.171875 -0.15625 10.171875 -0.1875 10.171875 -0.203125 C 10.171875 -0.3125 10.09375 -0.40625 9.96875 -0.40625 C 9.8125 -0.40625 9.78125 -0.265625 9.734375 -0.140625 Z M 4.625 16.046875" />
  </defs>
  <g
     transform="translate(-1, 0)"
     id="g10">
    <g
       fill="none"
       stroke="#000000"
       stroke-width="0.398"
       stroke-miterlimit="10"
       id="g4">
      <path
         style="baseline-shift:baseline;display:inline;overflow:visible;vector-effect:none;fill:#000000;stroke:none;enable-background:accumulate;stop-color:#000000;stop-opacity:1;opacity:1"
         d="m 0.00195313,-0.19921875 v 0.3984375 H 6.7753906 v -0.3984375 z"
         id="path1"
         transform="matrix(1,0,0,-1,7.749,6.164)" />
      <path
         style="baseline-shift:baseline;display:inline;overflow:visible;vector-effect:none;fill:#000000;stroke:none;enable-background:accumulate;stop-color:#000000;stop-opacity:1;opacity:1"
         d="M -0.19726562,0.00195313 V 5.9785156 h 0.3984375 V 0.00195313 Z"
         id="path2"
         transform="matrix(1,0,0,-1,7.948,12.341)" />
      <path
         style="baseline-shift:baseline;display:inline;overflow:visible;vector-effect:none;fill:#000000;stroke:none;enable-background:accumulate;stop-color:#000000;stop-opacity:1;opacity:1"
         d="M -0.19921875,0.00195313 V 5.9785156 h 0.3984375 V 0.00195313 Z"
         id="path3"
         transform="matrix(1,0,0,-1,14.324,12.341)" />
      <path
         style="baseline-shift:baseline;display:inline;overflow:visible;vector-effect:none;fill:#000000;stroke:none;enable-background:accumulate;stop-color:#000000;stop-opacity:1;opacity:1"
         d="M 0.00195313,-0.19726562 V 0.19921875 H 6.7753906 v -0.39648437 z"
         id="path4"
         transform="matrix(1,0,0,-1,7.749,12.54)" />
    </g>
    <path
       id="use4"
       d="m 13.614,21.824875 -2.140625,-7.46875 -1.390625,1.625 0.15625,0.140625 0.6875,-0.796875 2.296875,8 c 0.328125,0 0.328125,0 0.40625,-0.234375 L 19.114,5.7779999 c 0.04687,-0.15625 0.04687,-0.1875 0.04687,-0.203125 0,-0.109375 -0.07813,-0.203125 -0.203125,-0.203125 -0.15625,0 -0.1875,0.140625 -0.234375,0.265625 z m 0,0"
       style="fill:#000000" />
    <g
       fill="none"
       stroke="#000000"
       stroke-width="0.398"
       stroke-miterlimit="10"
       id="g9">
      <path
         style="baseline-shift:baseline;display:inline;overflow:visible;vector-effect:none;fill:#000000;stroke:none;enable-background:accumulate;stop-color:#000000;stop-opacity:1;opacity:1"
         d="M -0.00195313,-0.19726562 V 0.19921875 H 9.5410156 v -0.39648437 z"
         id="path5"
         transform="matrix(1,0,0,-1,18.951,5.579)" />
      <path
         style="baseline-shift:baseline;display:inline;overflow:visible;vector-effect:none;fill:#000000;stroke:none;enable-background:accumulate;stop-color:#000000;stop-opacity:1;opacity:1"
         d="m -0.00195313,-0.20117188 v 0.3984375 H 9.5410156 v -0.3984375 z"
         id="path6"
         transform="matrix(1,0,0,-1,18.951,8.28)" />
      <path
         style="baseline-shift:baseline;display:inline;overflow:visible;vector-effect:none;fill:#000000;stroke:none;enable-background:accumulate;stop-color:#000000;stop-opacity:1;opacity:1"
         d="m -0.20117188,0 v 12.628906 h 0.3984375 V 0 Z"
         id="path7"
         transform="matrix(1,0,0,-1,19.15,21.11)" />
      <path
         style="baseline-shift:baseline;display:inline;overflow:visible;vector-effect:none;fill:#000000;stroke:none;enable-background:accumulate;stop-color:#000000;stop-opacity:1;opacity:1"
         d="M -0.19921875,0 V 12.628906 H 0.19726562 V 0 Z"
         id="path8"
         transform="matrix(1,0,0,-1,28.294,21.11)" />
      <path
         style="baseline-shift:baseline;display:inline;overflow:visible;vector-effect:none;fill:#000000;stroke:none;enable-background:accumulate;stop-color:#000000;stop-opacity:1;opacity:1"
         d="m -0.00195313,-0.19921875 v 0.3984375 H 9.5410156 v -0.3984375 z"
         id="path9"
         transform="matrix(1,0,0,-1,18.951,21.309)" />
    </g>
  </g>
</svg>
