<?xml version="1.0" encoding="UTF-8" standalone="no"?>
<svg
   width="34.947pt"
   height="18.64pt"
   viewBox="0 0 34.947 18.64"
   version="1.1"
   id="svg7"
   sodipodi:docname="icon_exp.svg"
   inkscape:version="1.4.2 (f4327f4, 2025-05-13)"
   xmlns:inkscape="http://www.inkscape.org/namespaces/inkscape"
   xmlns:sodipodi="http://sodipodi.sourceforge.net/DTD/sodipodi-0.dtd"
   xmlns="http://www.w3.org/2000/svg"
   xmlns:svg="http://www.w3.org/2000/svg">
  <defs
     id="defs7" />
  <sodipodi:namedview
     id="namedview7"
     pagecolor="#ffffff"
     bordercolor="#000000"
     borderopacity="0.25"
     inkscape:showpageshadow="2"
     inkscape:pageopacity="0.0"
     inkscape:pagecheckerboard="0"
     inkscape:deskcolor="#d1d1d1"
     inkscape:document-units="pt"
     inkscape:zoom="32"
     inkscape:cx="18.078125"
     inkscape:cy="12.078125"
     inkscape:window-width="2560"
     inkscape:window-height="1369"
     inkscape:window-x="-8"
     inkscape:window-y="-8"
     inkscape:window-maximized="1"
     inkscape:current-layer="svg7" />
  <path
     d="M 10.566585,9.7636685 8.3255257,7.5226109 C 8.1843567,7.3814419 8.1667105,7.3637958 8.0784799,7.3637958 c -0.1235228,0 -0.2293995,0.08823 -0.2293995,0.2293995 0,0.070584 0.017646,0.088231 0.1411689,0.2117536 l 2.2587047,2.2587041 -2.2587047,2.276349 c -0.1235228,0.123523 -0.1411689,0.141169 -0.1411689,0.211753 0,0.14117 0.1058767,0.2294 0.2293995,0.2294 0.088231,0 0.1058768,-0.01764 0.2470458,-0.158816 l 2.2410593,-2.241056 2.329288,2.329288 c 0.01764,0.01764 0.08824,0.07058 0.158815,0.07058 0.141169,0 0.229399,-0.08823 0.229399,-0.2294 0,-0.01764 0,-0.05294 -0.03529,-0.123523 -0.01764,-0.01765 -1.799904,-1.782258 -2.36458,-2.36458 l 2.064596,-2.0469496 c 0.05294,-0.070584 0.229399,-0.2117534 0.282338,-0.282338 0,-0.017646 0.05294,-0.070584 0.05294,-0.1411689 0,-0.141169 -0.08824,-0.2293996 -0.229401,-0.2293996 -0.08824,0 -0.123523,0.035293 -0.247046,0.1588151 z m 0,0"
     id="path1"
     style="fill:#000000;stroke-width:1.12935" />
  <path
     d="m 17.010691,5.6874141 c 0,-0.2823379 0,-0.299984 -0.264691,-0.299984 -0.705845,0.723491 -1.694028,0.723491 -2.046951,0.723491 v 0.3529224 c 0.229401,0 0.882306,0 1.464629,-0.2999841 v 5.8408656 c 0,0.405863 -0.03529,0.529385 -1.041122,0.529385 h -0.352922 v 0.352922 c 0.388215,-0.03529 1.358751,-0.03529 1.81755,-0.03529 0.441154,0 1.429337,0 1.817551,0.03529 V 12.53411 h -0.352922 c -1.023475,0 -1.041122,-0.123523 -1.041122,-0.529385 z m 0,0"
     id="path2"
     style="fill:#000000;stroke-width:1.12935" />
  <path
     d="m 23.48441,9.2872232 c 0,-0.8999523 -0.05001,-1.7999046 -0.416742,-2.6292723 -0.48342,-1.0940596 -1.366914,-1.2705208 -1.800325,-1.2705208 -0.650118,0 -1.416923,0.299984 -1.867005,1.3411052 -0.333393,0.7764294 -0.383402,1.6587356 -0.383402,2.5586879 0,0.8470138 0.03334,1.8528428 0.483421,2.7175018 0.45008,0.899953 1.233556,1.129352 1.750316,1.129352 0.566768,0 1.383583,-0.229399 1.850333,-1.305813 0.333395,-0.776429 0.383404,-1.658735 0.383404,-2.5410408 z m -2.233737,3.5998088 c -0.416742,0 -1.05019,-0.282339 -1.233556,-1.358751 -0.116688,-0.670554 -0.116688,-1.7116745 -0.116688,-2.3822268 0,-0.7234911 0,-1.4646282 0.08335,-2.0645964 0.200036,-1.3411053 1.000181,-1.4469819 1.266896,-1.4469819 0.350063,0 1.050188,0.2117534 1.250226,1.3234591 0.116687,0.6352603 0.116687,1.4822743 0.116687,2.1881192 0,0.8470143 0,1.6057968 -0.116687,2.3292868 -0.166698,1.076414 -0.766806,1.411691 -1.250226,1.411691 z m 0,0"
     id="path3"
     style="fill:#000000;stroke-width:1.09766" />
  <path
     style="baseline-shift:baseline;display:inline;overflow:visible;vector-effect:none;fill:#000000;stroke:none;stroke-width:0.258175;stroke-linecap:butt;stroke-linejoin:miter;stroke-miterlimit:10;enable-background:accumulate;stop-color:#000000"
     d="m 24.794219,3.5795487 v -0.32 h 3.550827 v 0.32 z"
     id="path4" />
  <path
     style="baseline-shift:baseline;display:inline;overflow:visible;vector-effect:none;fill:#000000;stroke:none;stroke-width:0.258161;stroke-linecap:butt;stroke-linejoin:miter;stroke-miterlimit:10;enable-background:accumulate;stop-color:#000000"
     d="m 24.794104,6.601939 v -3.133 h 0.32 v 3.133 z"
     id="path5" />
  <path
     style="baseline-shift:baseline;display:inline;overflow:visible;vector-effect:none;fill:#000000;stroke:none;stroke-width:0.258175;stroke-linecap:butt;stroke-linejoin:miter;stroke-miterlimit:10;enable-background:accumulate;stop-color:#000000"
     d="M 28.025375,6.5964032 V 3.4630796 h 0.32 v 3.1333236 z"
     id="path6" />
  <path
     style="baseline-shift:baseline;display:inline;overflow:visible;vector-effect:none;fill:#000000;stroke:none;stroke-width:0.258175;stroke-linecap:butt;stroke-linejoin:miter;stroke-miterlimit:10;enable-background:accumulate;stop-color:#000000"
     d="m 24.794219,6.8049605 v -0.32 h 3.550827 v 0.32 z"
     id="path7" />
</svg>
