<?xml version="1.0" encoding="UTF-8"?>
<svg xmlns="http://www.w3.org/2000/svg" xmlns:xlink="http://www.w3.org/1999/xlink" width="23.246pt" height="19.925pt" viewBox="0 0 23.246 19.925" version="1.1">
<defs>
<g>
<symbol overflow="visible" id="glyph0-0">
<path style="stroke:none;" d=""/>
</symbol>
<symbol overflow="visible" id="glyph0-1">
<path style="stroke:none;" d="M 1.578125 -7.125 C 1.578125 -7.296875 1.578125 -7.484375 1.390625 -7.484375 C 1.1875 -7.484375 1.1875 -7.296875 1.1875 -7.125 L 1.1875 2.140625 C 1.1875 2.3125 1.1875 2.5 1.390625 2.5 C 1.578125 2.5 1.578125 2.3125 1.578125 2.140625 Z M 1.578125 -7.125 "/>
</symbol>
<symbol overflow="visible" id="glyph1-0">
<path style="stroke:none;" d=""/>
</symbol>
<symbol overflow="visible" id="glyph1-1">
<path style="stroke:none;" d="M 7.1875 -6.5 C 7.1875 -6.8125 7.15625 -6.84375 6.84375 -6.84375 L 0.90625 -6.84375 C 0.59375 -6.84375 0.5625 -6.8125 0.5625 -6.5 L 0.5625 -0.359375 C 0.5625 -0.046875 0.59375 0 0.921875 0 L 6.828125 0 C 7.15625 0 7.1875 -0.03125 7.1875 -0.34375 Z M 0.953125 -6.453125 L 6.78125 -6.453125 L 6.78125 -0.40625 L 0.953125 -0.40625 Z M 0.953125 -6.453125 "/>
</symbol>
</g>
</defs>
<g id="surface1">
<g style="fill:rgb(0%,0%,0%);fill-opacity:1;">
  <use xlink:href="#glyph0-1" x="4.981" y="12.453"/>
</g>
<g style="fill:rgb(0%,0%,0%);fill-opacity:1;">
  <use xlink:href="#glyph1-1" x="7.74861" y="12.453"/>
</g>
<g style="fill:rgb(0%,0%,0%);fill-opacity:1;">
  <use xlink:href="#glyph0-1" x="15.497521" y="12.453"/>
</g>
</g>
</svg>
