<?xml version="1.0" encoding="UTF-8"?>
<svg xmlns="http://www.w3.org/2000/svg" xmlns:xlink="http://www.w3.org/1999/xlink" width="26.777pt" height="24.315pt" viewBox="0 0 26.777 24.315" version="1.1">
<g id="surface1">
<path style="fill:none;stroke-width:0.398;stroke-linecap:butt;stroke-linejoin:miter;stroke:rgb(0%,0%,0%);stroke-opacity:1;stroke-miterlimit:10;" d="M -0.00053125 -0.00046875 L 9.542437 -0.00046875 " transform="matrix(1,0,0,-1,4.981,6.105)"/>
<path style="fill:none;stroke-width:0.398;stroke-linecap:butt;stroke-linejoin:miter;stroke:rgb(0%,0%,0%);stroke-opacity:1;stroke-miterlimit:10;" d="M -0.0013125 0.00140625 L -0.0013125 12.630313 " transform="matrix(1,0,0,-1,5.181,18.935)"/>
<path style="fill:none;stroke-width:0.398;stroke-linecap:butt;stroke-linejoin:miter;stroke:rgb(0%,0%,0%);stroke-opacity:1;stroke-miterlimit:10;" d="M 0.00021875 0.00140625 L 0.00021875 12.630313 " transform="matrix(1,0,0,-1,14.324,18.935)"/>
<path style="fill:none;stroke-width:0.398;stroke-linecap:butt;stroke-linejoin:miter;stroke:rgb(0%,0%,0%);stroke-opacity:1;stroke-miterlimit:10;" d="M -0.00053125 0.0011875 L 9.542437 0.0011875 " transform="matrix(1,0,0,-1,4.981,19.134)"/>
<path style="fill:none;stroke-width:0.398;stroke-linecap:butt;stroke-linejoin:miter;stroke:rgb(0%,0%,0%);stroke-opacity:1;stroke-miterlimit:10;" d="M 0.0004375 0.0003125 L 6.773875 0.0003125 " transform="matrix(1,0,0,-1,14.523,5.18)"/>
<path style="fill:none;stroke-width:0.398;stroke-linecap:butt;stroke-linejoin:miter;stroke:rgb(0%,0%,0%);stroke-opacity:1;stroke-miterlimit:10;" d="M -0.00034375 0.00153125 L -0.00034375 5.978094 " transform="matrix(1,0,0,-1,14.723,11.357)"/>
<path style="fill:none;stroke-width:0.398;stroke-linecap:butt;stroke-linejoin:miter;stroke:rgb(0%,0%,0%);stroke-opacity:1;stroke-miterlimit:10;" d="M -0.00134375 0.00153125 L -0.00134375 5.978094 " transform="matrix(1,0,0,-1,21.099,11.357)"/>
<path style="fill:none;stroke-width:0.398;stroke-linecap:butt;stroke-linejoin:miter;stroke:rgb(0%,0%,0%);stroke-opacity:1;stroke-miterlimit:10;" d="M 0.0004375 0.0013125 L 6.773875 0.0013125 " transform="matrix(1,0,0,-1,14.523,11.556)"/>
</g>
</svg>
