<?xml version="1.0" encoding="UTF-8"?>
<svg xmlns="http://www.w3.org/2000/svg" xmlns:xlink="http://www.w3.org/1999/xlink" width="23.264pt" height="22.51pt" viewBox="0 0 23.264 22.51" version="1.1">
<defs>
<g>
<symbol overflow="visible" id="glyph0-0">
<path style="stroke:none;" d=""/>
</symbol>
<symbol overflow="visible" id="glyph0-1">
<path style="stroke:none;" d="M 3.65625 -2.359375 C 3.5625 -2.765625 3.25 -3.171875 2.59375 -3.171875 C 1.609375 -3.171875 0.8125 -2.453125 0.5625 -1.8125 C 0.515625 -1.703125 0.421875 -1.421875 0.421875 -1.140625 C 0.421875 -0.65625 0.796875 0.140625 1.875 0.140625 C 3.6875 0.140625 4.421875 -2.109375 4.421875 -3.09375 C 4.421875 -4.296875 3.640625 -4.96875 2.703125 -4.96875 C 1.5625 -4.96875 1.25 -4.0625 1.25 -3.859375 C 1.25 -3.796875 1.296875 -3.609375 1.53125 -3.609375 C 1.78125 -3.609375 1.921875 -3.8125 1.921875 -3.984375 C 1.921875 -4.171875 1.78125 -4.234375 1.65625 -4.25 C 2 -4.78125 2.578125 -4.78125 2.6875 -4.78125 C 3.21875 -4.78125 3.828125 -4.453125 3.828125 -3.453125 C 3.828125 -3.15625 3.796875 -2.90625 3.671875 -2.359375 Z M 1.890625 -0.078125 C 1.109375 -0.078125 1.015625 -0.671875 1.015625 -0.890625 C 1.015625 -1.15625 1.203125 -1.84375 1.28125 -2.015625 C 1.40625 -2.34375 1.828125 -2.984375 2.625 -2.984375 C 3.296875 -2.984375 3.515625 -2.453125 3.515625 -2.03125 C 3.515625 -1.5625 3.0625 -0.078125 1.890625 -0.078125 Z M 1.890625 -0.078125 "/>
</symbol>
<symbol overflow="visible" id="glyph1-0">
<path style="stroke:none;" d=""/>
</symbol>
<symbol overflow="visible" id="glyph1-1">
<path style="stroke:none;" d="M 5.671875 -5 C 5.671875 -5.21875 5.640625 -5.265625 5.40625 -5.265625 L 0.8125 -5.265625 C 0.578125 -5.265625 0.546875 -5.21875 0.546875 -5 L 0.546875 -0.265625 C 0.546875 -0.03125 0.578125 0 0.828125 0 L 5.390625 0 C 5.640625 0 5.671875 -0.046875 5.671875 -0.28125 Z M 0.890625 -4.921875 L 5.328125 -4.921875 L 5.328125 -0.34375 L 0.890625 -0.34375 Z M 0.890625 -4.921875 "/>
</symbol>
</g>
</defs>
<g id="surface1">
<g style="fill:rgb(0%,0%,0%);fill-opacity:1;">
  <use xlink:href="#glyph0-1" x="6.177" y="10.171"/>
</g>
<g style="fill:rgb(0%,0%,0%);fill-opacity:1;">
  <use xlink:href="#glyph1-1" x="10.857117" y="10.171"/>
</g>
<path style="fill:none;stroke-width:0.398;stroke-linecap:butt;stroke-linejoin:miter;stroke:rgb(0%,0%,0%);stroke-opacity:1;stroke-miterlimit:10;" d="M -0.00121875 0.0004375 L 10.908938 0.0004375 " transform="matrix(1,0,0,-1,6.177,11.602)"/>
<g style="fill:rgb(0%,0%,0%);fill-opacity:1;">
  <use xlink:href="#glyph0-1" x="6.177" y="17.529"/>
</g>
<g style="fill:rgb(0%,0%,0%);fill-opacity:1;">
  <use xlink:href="#glyph1-1" x="10.857117" y="17.529"/>
</g>
</g>
</svg>
